<svg width="18" height="17" viewBox="0 0 18 17" fill="none" xmlns="http://www.w3.org/2000/svg">
<path d="M6.18304 1.94482H11.2455C11.4002 1.94482 11.5268 2.06482 11.5268 2.21148V3.54482H5.90179V2.21148C5.90179 2.06482 6.02836 1.94482 6.18304 1.94482ZM4.21429 2.21148V3.54482H1.96429C0.723279 3.54482 -0.285706 4.50148 -0.285706 5.67815V8.87815H6.46429H10.9643H17.7143V5.67815C17.7143 4.50148 16.7053 3.54482 15.4643 3.54482H13.2143V2.21148C13.2143 1.18148 12.3319 0.344818 11.2455 0.344818H6.18304C5.09672 0.344818 4.21429 1.18148 4.21429 2.21148ZM17.7143 9.94482H10.9643V11.0115C10.9643 11.6015 10.4616 12.0782 9.8393 12.0782H7.58929C6.96703 12.0782 6.46429 11.6015 6.46429 11.0115V9.94482H-0.285706V14.2115C-0.285706 15.3882 0.723279 16.3448 1.96429 16.3448H15.4643C16.7053 16.3448 17.7143 15.3882 17.7143 14.2115V9.94482Z" fill="white"/>
</svg>
