<svg width="15" height="15" viewBox="0 0 15 15" fill="none" xmlns="http://www.w3.org/2000/svg">
<path d="M12.7533 2.22402C11.3504 0.829492 9.48214 0.0625 7.49665 0.0625C3.39844 0.0625 0.0636161 3.36953 0.0636161 7.43359C0.0636161 8.73184 0.405134 10.0002 1.05469 11.1191L0 14.9375L3.94085 13.9115C5.02567 14.4992 6.24777 14.808 7.4933 14.808H7.49665C11.5915 14.808 15 11.501 15 7.43691C15 5.46797 14.1562 3.61855 12.7533 2.22402ZM7.49665 13.5662C6.38504 13.5662 5.29687 13.2707 4.34933 12.7129L4.125 12.5801L1.78795 13.1877L2.41071 10.9266L2.26339 10.6941C1.64397 9.71797 1.3192 8.59238 1.3192 7.43359C1.3192 4.05684 4.09152 1.30762 7.5 1.30762C9.15067 1.30762 10.7009 1.94512 11.8661 3.10391C13.0312 4.2627 13.7478 5.8 13.7444 7.43691C13.7444 10.817 10.9018 13.5662 7.49665 13.5662ZM10.885 8.97754C10.7009 8.88457 9.78683 8.43965 9.61607 8.37988C9.44531 8.3168 9.32143 8.28691 9.19755 8.47285C9.07366 8.65879 8.71875 9.07051 8.60826 9.19668C8.50112 9.31953 8.39062 9.33613 8.20647 9.24316C7.11496 8.70195 6.39844 8.27695 5.67857 7.05176C5.48772 6.72637 5.86942 6.74961 6.22433 6.0457C6.2846 5.92285 6.25446 5.8166 6.20759 5.72363C6.16071 5.63066 5.78906 4.72422 5.63504 4.35566C5.48438 3.99707 5.33036 4.04688 5.21652 4.04023C5.10938 4.03359 4.98549 4.03359 4.86161 4.03359C4.73772 4.03359 4.53683 4.08008 4.36607 4.2627C4.19531 4.44863 3.71652 4.89355 3.71652 5.8C3.71652 6.70645 4.38281 7.58301 4.47321 7.70586C4.56696 7.82871 5.78237 9.68809 7.64732 10.4883C8.82589 10.993 9.28795 11.0361 9.87723 10.9498C10.2355 10.8967 10.9754 10.5049 11.1295 10.0732C11.2835 9.6416 11.2835 9.27305 11.2366 9.19668C11.1931 9.11367 11.0692 9.06719 10.885 8.97754Z" fill="#0284C7"/>
</svg>
